<svg width="718" height="718" viewBox="0 0 718 718" fill="none" xmlns="http://www.w3.org/2000/svg">
<path d="M559 359C559 469.457 469.457 559 359 559C248.543 559 159 469.457 159 359C159 248.543 248.543 159 359 159C469.457 159 559 248.543 559 359Z" fill="#EAE220"/>
<path fill-rule="evenodd" clip-rule="evenodd" d="M359 0.666748C372.807 0.666748 384 11.8597 384 25.6667V59.0001C384 72.8071 372.807 84.0001 359 84.0001C345.193 84.0001 334 72.8071 334 59.0001V25.6667C334 11.8597 345.193 0.666748 359 0.666748ZM105.62 105.62C115.383 95.8574 131.213 95.8574 140.976 105.62L154.07 118.715C163.833 128.478 163.833 144.307 154.07 154.07C144.307 163.833 128.478 163.833 118.715 154.07L105.62 140.976C95.8573 131.213 95.8573 115.383 105.62 105.62ZM612.37 105.629C622.133 115.392 622.133 131.221 612.37 140.984L599.277 154.079C589.513 163.842 573.683 163.842 563.92 154.079C554.157 144.316 554.157 128.487 563.92 118.724L577.017 105.629C586.78 95.8661 602.607 95.8661 612.37 105.629ZM0.666679 359C0.666679 345.193 11.8597 334 25.6667 334H59C72.807 334 84 345.193 84 359C84 372.807 72.807 384 59 384H25.6667C11.8597 384 0.666679 372.807 0.666679 359ZM634 359C634 345.193 645.193 334 659 334H692.333C706.14 334 717.333 345.193 717.333 359C717.333 372.807 706.14 384 692.333 384H659C645.193 384 634 372.807 634 359ZM563.92 563.92C573.683 554.157 589.513 554.157 599.277 563.92L612.37 577.017C622.133 586.78 622.133 602.607 612.37 612.37C602.607 622.133 586.78 622.133 577.017 612.37L563.92 599.277C554.157 589.513 554.157 573.683 563.92 563.92ZM154.07 563.93C163.833 573.693 163.833 589.523 154.07 599.287L140.976 612.38C131.213 622.143 115.383 622.143 105.62 612.38C95.8573 602.617 95.8573 586.787 105.62 577.023L118.715 563.93C128.478 554.167 144.307 554.167 154.07 563.93ZM359 634C372.807 634 384 645.193 384 659V692.333C384 706.14 372.807 717.333 359 717.333C345.193 717.333 334 706.14 334 692.333V659C334 645.193 345.193 634 359 634Z" fill="#EAE220"/>
</svg>
