<svg width="64" height="63" viewBox="0 0 64 63" fill="none" xmlns="http://www.w3.org/2000/svg">
<ellipse cx="32.275" cy="31.2257" rx="29.1015" ry="28.6606" transform="rotate(-4.92513 32.275 31.2257)" fill="#312580"/>
<ellipse cx="32.275" cy="31.2257" rx="29.1015" ry="28.6606" transform="rotate(-4.92513 32.275 31.2257)" fill="#F15433"/>
<path d="M11.19 44L13.44 38.39L7.05 22.1H11.13L14.43 31.76C14.63 32.32 14.8 32.91 14.94 33.53C15.1 34.15 15.2 34.64 15.24 35C15.28 34.64 15.36 34.15 15.48 33.53C15.6 32.89 15.75 32.3 15.93 31.76L18.96 22.1H22.95L15.15 44H11.19ZM26.3283 44V22.1H39.6483V44H35.8983V25.58H30.0783V44H26.3283ZM44.2866 44V22.1H51.5766C53.0366 22.1 54.3066 22.38 55.3866 22.94C56.4866 23.5 57.3366 24.29 57.9366 25.31C58.5366 26.31 58.8366 27.49 58.8366 28.85C58.8366 30.19 58.5266 31.37 57.9066 32.39C57.3066 33.41 56.4666 34.2 55.3866 34.76C54.3066 35.32 53.0366 35.6 51.5766 35.6H48.0366V44H44.2866ZM48.0366 32.21H51.5766C52.6166 32.21 53.4466 31.91 54.0666 31.31C54.7066 30.69 55.0266 29.87 55.0266 28.85C55.0266 27.81 54.7066 26.99 54.0666 26.39C53.4466 25.79 52.6166 25.49 51.5766 25.49H48.0366V32.21Z" fill="white"/>
</svg>
